<mxfile host="app.diagrams.net" agent="Mozilla/5.0 (Windows NT 10.0; Win64; x64; rv:109.0) Gecko/20100101 Firefox/115.0" version="24.7.4">
  <diagram name="第 1 页" id="DARa1cNNLAOgRy6vukpE">
    <mxGraphModel dx="997" dy="606" grid="1" gridSize="10" guides="1" tooltips="1" connect="1" arrows="1" fold="1" page="1" pageScale="1" pageWidth="1169" pageHeight="827" background="none" math="0" shadow="1">
      <root>
        <mxCell id="0" />
        <mxCell id="1" parent="0" />
        <mxCell id="xfWtqoLvKzCp4qgecF8K-34" value="" style="rounded=0;whiteSpace=wrap;html=1;sketch=1;hachureGap=4;jiggle=2;curveFitting=1;fontFamily=Architects Daughter;fontSource=https%3A%2F%2Ffonts.googleapis.com%2Fcss%3Ffamily%3DArchitects%2BDaughter;" vertex="1" parent="1">
          <mxGeometry x="290" y="96.5" width="720" height="511" as="geometry" />
        </mxCell>
        <mxCell id="xfWtqoLvKzCp4qgecF8K-5" value="" style="edgeStyle=orthogonalEdgeStyle;rounded=0;orthogonalLoop=1;jettySize=auto;html=1;labelBorderColor=none;textShadow=1;fontFamily=Times New Roman;flowAnimation=0;dashed=1;" edge="1" parent="1" source="xfWtqoLvKzCp4qgecF8K-1" target="xfWtqoLvKzCp4qgecF8K-4">
          <mxGeometry relative="1" as="geometry">
            <Array as="points">
              <mxPoint x="640" y="200" />
              <mxPoint x="493" y="200" />
            </Array>
          </mxGeometry>
        </mxCell>
        <mxCell id="xfWtqoLvKzCp4qgecF8K-8" value="" style="edgeStyle=orthogonalEdgeStyle;rounded=0;orthogonalLoop=1;jettySize=auto;html=1;labelBorderColor=none;textShadow=1;fontFamily=Times New Roman;flowAnimation=0;dashed=1;" edge="1" parent="1" source="xfWtqoLvKzCp4qgecF8K-1" target="xfWtqoLvKzCp4qgecF8K-7">
          <mxGeometry relative="1" as="geometry">
            <Array as="points">
              <mxPoint x="640" y="200" />
              <mxPoint x="800" y="200" />
            </Array>
          </mxGeometry>
        </mxCell>
        <mxCell id="xfWtqoLvKzCp4qgecF8K-9" value="fork" style="edgeLabel;html=1;align=center;verticalAlign=middle;resizable=0;points=[];labelBorderColor=none;textShadow=1;fontFamily=Times New Roman;sketch=1;curveFitting=1;jiggle=2;" vertex="1" connectable="0" parent="xfWtqoLvKzCp4qgecF8K-8">
          <mxGeometry x="-0.8333" relative="1" as="geometry">
            <mxPoint y="-7" as="offset" />
          </mxGeometry>
        </mxCell>
        <mxCell id="xfWtqoLvKzCp4qgecF8K-1" value="根任务" style="rounded=1;whiteSpace=wrap;html=1;fillColor=#dae8fc;strokeColor=#6c8ebf;labelBorderColor=none;textShadow=1;fontFamily=Times New Roman;shadow=0;glass=0;imageAspect=1;connectable=1;" vertex="1" parent="1">
          <mxGeometry x="580" y="130" width="120" height="40" as="geometry" />
        </mxCell>
        <mxCell id="xfWtqoLvKzCp4qgecF8K-13" value="" style="edgeStyle=orthogonalEdgeStyle;rounded=0;orthogonalLoop=1;jettySize=auto;html=1;labelBorderColor=none;textShadow=1;fontFamily=Times New Roman;flowAnimation=0;dashed=1;" edge="1" parent="1" source="xfWtqoLvKzCp4qgecF8K-4" target="xfWtqoLvKzCp4qgecF8K-10">
          <mxGeometry relative="1" as="geometry">
            <Array as="points">
              <mxPoint x="493" y="300" />
              <mxPoint x="413" y="300" />
            </Array>
          </mxGeometry>
        </mxCell>
        <mxCell id="xfWtqoLvKzCp4qgecF8K-15" value="" style="edgeStyle=orthogonalEdgeStyle;rounded=0;orthogonalLoop=1;jettySize=auto;html=1;labelBorderColor=none;textShadow=1;fontFamily=Times New Roman;flowAnimation=0;dashed=1;" edge="1" parent="1" source="xfWtqoLvKzCp4qgecF8K-4" target="xfWtqoLvKzCp4qgecF8K-14">
          <mxGeometry relative="1" as="geometry">
            <Array as="points">
              <mxPoint x="493" y="300" />
              <mxPoint x="573" y="300" />
            </Array>
          </mxGeometry>
        </mxCell>
        <mxCell id="xfWtqoLvKzCp4qgecF8K-16" value="fork" style="edgeLabel;html=1;align=center;verticalAlign=middle;resizable=0;points=[];labelBorderColor=none;textShadow=1;fontFamily=Times New Roman;sketch=1;curveFitting=1;jiggle=2;" vertex="1" connectable="0" parent="xfWtqoLvKzCp4qgecF8K-15">
          <mxGeometry x="-0.8286" y="-1" relative="1" as="geometry">
            <mxPoint x="1" y="8" as="offset" />
          </mxGeometry>
        </mxCell>
        <mxCell id="xfWtqoLvKzCp4qgecF8K-4" value="子任务1" style="whiteSpace=wrap;html=1;rounded=1;fillColor=#d5e8d4;strokeColor=#82b366;labelBorderColor=none;textShadow=1;fontFamily=Times New Roman;shadow=0;glass=0;" vertex="1" parent="1">
          <mxGeometry x="433" y="220" width="120" height="40" as="geometry" />
        </mxCell>
        <mxCell id="xfWtqoLvKzCp4qgecF8K-18" value="" style="edgeStyle=orthogonalEdgeStyle;rounded=0;orthogonalLoop=1;jettySize=auto;html=1;labelBorderColor=none;textShadow=1;fontFamily=Times New Roman;flowAnimation=0;dashed=1;" edge="1" parent="1" source="xfWtqoLvKzCp4qgecF8K-7" target="xfWtqoLvKzCp4qgecF8K-17">
          <mxGeometry relative="1" as="geometry">
            <Array as="points">
              <mxPoint x="799" y="300" />
              <mxPoint x="879" y="300" />
            </Array>
          </mxGeometry>
        </mxCell>
        <mxCell id="xfWtqoLvKzCp4qgecF8K-20" value="" style="edgeStyle=orthogonalEdgeStyle;rounded=0;orthogonalLoop=1;jettySize=auto;html=1;labelBorderColor=none;textShadow=1;fontFamily=Times New Roman;flowAnimation=0;dashed=1;" edge="1" parent="1" source="xfWtqoLvKzCp4qgecF8K-7" target="xfWtqoLvKzCp4qgecF8K-19">
          <mxGeometry relative="1" as="geometry">
            <Array as="points">
              <mxPoint x="799" y="300" />
              <mxPoint x="709" y="300" />
            </Array>
          </mxGeometry>
        </mxCell>
        <mxCell id="xfWtqoLvKzCp4qgecF8K-32" value="fork" style="edgeLabel;html=1;align=center;verticalAlign=middle;resizable=0;points=[];fontFamily=Times New Roman;labelBorderColor=none;sketch=1;curveFitting=1;jiggle=2;" vertex="1" connectable="0" parent="xfWtqoLvKzCp4qgecF8K-20">
          <mxGeometry x="-0.7956" y="1" relative="1" as="geometry">
            <mxPoint as="offset" />
          </mxGeometry>
        </mxCell>
        <mxCell id="xfWtqoLvKzCp4qgecF8K-7" value="子任务2" style="whiteSpace=wrap;html=1;rounded=1;fillColor=#d5e8d4;strokeColor=#82b366;labelBorderColor=none;textShadow=1;fontFamily=Times New Roman;shadow=0;glass=0;" vertex="1" parent="1">
          <mxGeometry x="739" y="220" width="120" height="40" as="geometry" />
        </mxCell>
        <mxCell id="xfWtqoLvKzCp4qgecF8K-22" value="" style="edgeStyle=orthogonalEdgeStyle;rounded=0;orthogonalLoop=1;jettySize=auto;html=1;labelBorderColor=none;textShadow=1;fontFamily=Times New Roman;flowAnimation=0;dashed=1;" edge="1" parent="1" source="xfWtqoLvKzCp4qgecF8K-10" target="xfWtqoLvKzCp4qgecF8K-21">
          <mxGeometry relative="1" as="geometry">
            <Array as="points">
              <mxPoint x="413" y="400" />
              <mxPoint x="493" y="400" />
            </Array>
          </mxGeometry>
        </mxCell>
        <mxCell id="xfWtqoLvKzCp4qgecF8K-10" value="子任务1.1" style="whiteSpace=wrap;html=1;rounded=1;fillColor=#ffe6cc;strokeColor=#d79b00;labelBorderColor=none;textShadow=1;fontFamily=Times New Roman;shadow=0;glass=0;" vertex="1" parent="1">
          <mxGeometry x="353" y="329" width="120" height="40" as="geometry" />
        </mxCell>
        <mxCell id="xfWtqoLvKzCp4qgecF8K-23" style="edgeStyle=orthogonalEdgeStyle;rounded=0;orthogonalLoop=1;jettySize=auto;html=1;labelBorderColor=none;textShadow=1;fontFamily=Times New Roman;flowAnimation=0;dashed=1;" edge="1" parent="1" source="xfWtqoLvKzCp4qgecF8K-14" target="xfWtqoLvKzCp4qgecF8K-21">
          <mxGeometry relative="1" as="geometry">
            <Array as="points">
              <mxPoint x="573" y="400" />
              <mxPoint x="493" y="400" />
            </Array>
          </mxGeometry>
        </mxCell>
        <mxCell id="xfWtqoLvKzCp4qgecF8K-24" value="&lt;div&gt;join&lt;/div&gt;" style="edgeLabel;html=1;align=center;verticalAlign=middle;resizable=0;points=[];labelBorderColor=none;textShadow=1;fontFamily=Times New Roman;sketch=1;curveFitting=1;jiggle=2;" vertex="1" connectable="0" parent="xfWtqoLvKzCp4qgecF8K-23">
          <mxGeometry x="0.7333" y="2" relative="1" as="geometry">
            <mxPoint x="-2" y="-6" as="offset" />
          </mxGeometry>
        </mxCell>
        <mxCell id="xfWtqoLvKzCp4qgecF8K-14" value="子任务1.2" style="whiteSpace=wrap;html=1;rounded=1;fillColor=#ffe6cc;strokeColor=#d79b00;labelBorderColor=none;textShadow=1;fontFamily=Times New Roman;shadow=0;glass=0;" vertex="1" parent="1">
          <mxGeometry x="513" y="329" width="120" height="40" as="geometry" />
        </mxCell>
        <mxCell id="xfWtqoLvKzCp4qgecF8K-27" style="edgeStyle=orthogonalEdgeStyle;rounded=0;orthogonalLoop=1;jettySize=auto;html=1;entryX=0.5;entryY=0;entryDx=0;entryDy=0;labelBorderColor=none;textShadow=1;fontFamily=Times New Roman;flowAnimation=0;dashed=1;" edge="1" parent="1" source="xfWtqoLvKzCp4qgecF8K-17" target="xfWtqoLvKzCp4qgecF8K-25">
          <mxGeometry relative="1" as="geometry">
            <Array as="points">
              <mxPoint x="879" y="400" />
              <mxPoint x="799" y="400" />
            </Array>
          </mxGeometry>
        </mxCell>
        <mxCell id="xfWtqoLvKzCp4qgecF8K-17" value="子任务2.2" style="whiteSpace=wrap;html=1;rounded=1;fillColor=#ffe6cc;strokeColor=#d79b00;labelBorderColor=none;textShadow=1;fontFamily=Times New Roman;shadow=0;glass=0;" vertex="1" parent="1">
          <mxGeometry x="819" y="329" width="120" height="40" as="geometry" />
        </mxCell>
        <mxCell id="xfWtqoLvKzCp4qgecF8K-26" value="" style="edgeStyle=orthogonalEdgeStyle;rounded=0;orthogonalLoop=1;jettySize=auto;html=1;labelBorderColor=none;textShadow=1;fontFamily=Times New Roman;flowAnimation=0;dashed=1;" edge="1" parent="1" source="xfWtqoLvKzCp4qgecF8K-19" target="xfWtqoLvKzCp4qgecF8K-25">
          <mxGeometry relative="1" as="geometry">
            <Array as="points">
              <mxPoint x="709" y="400" />
              <mxPoint x="799" y="400" />
            </Array>
          </mxGeometry>
        </mxCell>
        <mxCell id="xfWtqoLvKzCp4qgecF8K-28" value="join" style="edgeLabel;html=1;align=center;verticalAlign=middle;resizable=0;points=[];labelBorderColor=none;textShadow=1;fontFamily=Times New Roman;sketch=1;curveFitting=1;jiggle=2;" vertex="1" connectable="0" parent="xfWtqoLvKzCp4qgecF8K-26">
          <mxGeometry x="0.6667" y="-1" relative="1" as="geometry">
            <mxPoint x="1" y="1" as="offset" />
          </mxGeometry>
        </mxCell>
        <mxCell id="xfWtqoLvKzCp4qgecF8K-19" value="子任务2.1" style="whiteSpace=wrap;html=1;rounded=1;fillColor=#ffe6cc;strokeColor=#d79b00;labelBorderColor=none;textShadow=1;fontFamily=Times New Roman;shadow=0;glass=0;" vertex="1" parent="1">
          <mxGeometry x="649" y="329" width="120" height="40" as="geometry" />
        </mxCell>
        <mxCell id="xfWtqoLvKzCp4qgecF8K-30" style="edgeStyle=orthogonalEdgeStyle;rounded=0;orthogonalLoop=1;jettySize=auto;html=1;labelBorderColor=none;textShadow=1;fontFamily=Times New Roman;flowAnimation=0;dashed=1;" edge="1" parent="1" source="xfWtqoLvKzCp4qgecF8K-21" target="xfWtqoLvKzCp4qgecF8K-29">
          <mxGeometry relative="1" as="geometry">
            <Array as="points">
              <mxPoint x="480" y="500" />
              <mxPoint x="640" y="500" />
            </Array>
          </mxGeometry>
        </mxCell>
        <mxCell id="xfWtqoLvKzCp4qgecF8K-21" value="子任务1" style="whiteSpace=wrap;html=1;rounded=1;fillColor=#d5e8d4;strokeColor=#82b366;labelBorderColor=none;textShadow=1;fontFamily=Times New Roman;shadow=0;glass=0;" vertex="1" parent="1">
          <mxGeometry x="433" y="440" width="120" height="40" as="geometry" />
        </mxCell>
        <mxCell id="xfWtqoLvKzCp4qgecF8K-31" style="edgeStyle=orthogonalEdgeStyle;rounded=0;orthogonalLoop=1;jettySize=auto;html=1;entryX=0.5;entryY=0;entryDx=0;entryDy=0;labelBorderColor=none;textShadow=1;fontFamily=Times New Roman;flowAnimation=0;dashed=1;" edge="1" parent="1" source="xfWtqoLvKzCp4qgecF8K-25" target="xfWtqoLvKzCp4qgecF8K-29">
          <mxGeometry relative="1" as="geometry">
            <Array as="points">
              <mxPoint x="807" y="500" />
              <mxPoint x="640" y="500" />
            </Array>
          </mxGeometry>
        </mxCell>
        <mxCell id="xfWtqoLvKzCp4qgecF8K-33" value="&lt;div&gt;join&lt;/div&gt;" style="edgeLabel;html=1;align=center;verticalAlign=middle;resizable=0;points=[];fontFamily=Times New Roman;labelBorderColor=none;sketch=1;curveFitting=1;jiggle=2;" vertex="1" connectable="0" parent="xfWtqoLvKzCp4qgecF8K-31">
          <mxGeometry x="0.7215" relative="1" as="geometry">
            <mxPoint y="10" as="offset" />
          </mxGeometry>
        </mxCell>
        <mxCell id="xfWtqoLvKzCp4qgecF8K-25" value="子任务2" style="whiteSpace=wrap;html=1;rounded=1;fillColor=#d5e8d4;strokeColor=#82b366;labelBorderColor=none;textShadow=1;fontFamily=Times New Roman;shadow=0;glass=0;" vertex="1" parent="1">
          <mxGeometry x="739" y="440" width="120" height="40" as="geometry" />
        </mxCell>
        <mxCell id="xfWtqoLvKzCp4qgecF8K-29" value="根任务" style="rounded=1;whiteSpace=wrap;html=1;fillColor=#dae8fc;strokeColor=#6c8ebf;labelBorderColor=none;textShadow=1;fontFamily=Times New Roman;shadow=0;glass=0;" vertex="1" parent="1">
          <mxGeometry x="580" y="540" width="120" height="40" as="geometry" />
        </mxCell>
      </root>
    </mxGraphModel>
  </diagram>
</mxfile>
